<svg id="Layer_1" data-name="Layer 1" xmlns="http://www.w3.org/2000/svg" viewBox="0 0 800 800"><defs><style>.cls-1{fill:#fff;}.cls-2{fill:#e21e26;}.cls-3{fill:#010101;}</style></defs><title>IFRC-digitalLogo-brownBackground-EN</title><path class="cls-1" d="M653.2,525.32a23.78,23.78,0,0,1-23.78,23.78H171.58a23.78,23.78,0,0,1-23.77-23.78V275.6a23.78,23.78,0,0,1,23.77-23.79H629.42A23.78,23.78,0,0,1,653.2,275.6Z"/><polygon class="cls-2" points="271.79 429.93 204.66 429.93 204.66 372.39 271.79 372.39 271.78 372.36 271.78 305.23 329.32 305.23 329.32 372.36 329.31 372.39 396.45 372.39 396.45 429.93 329.31 429.93 329.32 429.91 329.32 497.04 271.78 497.04 271.78 429.91 271.79 429.93"/><path class="cls-2" d="M485.46,400.11A81,81,0,0,1,594.7,324.25a97.14,97.14,0,1,0,1.65,151.09,81,81,0,0,1-110.89-75.23"/><path class="cls-2" d="M614.55,262.49H186.45a28,28,0,0,0-28,28v220a28,28,0,0,0,28,28h428.1a28,28,0,0,0,28-28v-220A28,28,0,0,0,614.55,262.49Zm19.59,248a19.61,19.61,0,0,1-19.59,19.59H186.45a19.61,19.61,0,0,1-19.59-19.59v-220a19.61,19.61,0,0,1,19.59-19.59h428.1a19.61,19.61,0,0,1,19.59,19.59Z"/><path class="cls-3" d="M162.24,175.42H168v43.66h-5.8Z"/><path class="cls-3" d="M179.3,175.42h6.17l23,35.41h.12V175.42h5.5v43.66h-6.36l-22.81-35h-.12v35h-5.5Z"/><path class="cls-3" d="M235,180.31H220.39v-4.89h34.92v4.89H240.75v38.77H235Z"/><path class="cls-3" d="M261.67,175.42h30.15v4.89H267.48v13.88h22.69v4.89H267.48v15.11H292v4.89H261.67Z"/><path class="cls-3" d="M300.56,175.42h20.55c8.19,0,13.26,4.47,13.26,11.44,0,5.25-2.32,9.6-7.58,11.06v.13c5.08,1,6.12,4.71,6.55,9s.12,9,2.56,12h-6.47c-1.66-1.77-.74-6.48-1.6-10.76-.61-4.28-1.65-7.89-7.28-7.89H306.37v18.65h-5.81Zm17.91,20.12c5.45,0,10.1-1.41,10.1-7.77,0-4.28-2.33-7.46-7.77-7.46H306.37v15.23Z"/><path class="cls-3" d="M343.86,175.42H350l23,35.41h.12V175.42h5.5v43.66h-6.36l-22.81-35h-.12v35h-5.5Z"/><path class="cls-3" d="M401.46,175.42h6.42l17.06,43.66h-6.42l-4.77-13.14H395.29l-4.9,13.14h-6ZM397.12,201h14.8l-7.28-20.36h-.13Z"/><path class="cls-3" d="M435.1,180.31H420.54v-4.89h34.92v4.89H440.91v38.77H435.1Z"/><path class="cls-3" d="M462.06,175.42h5.81v43.66h-5.81Z"/><path class="cls-3" d="M497.65,174.38c13.88,0,20.92,11,20.92,22.87s-7,22.87-20.92,22.87-20.91-11-20.91-22.87S483.77,174.38,497.65,174.38Zm0,40.85c10.65,0,15.1-9.18,15.1-18s-4.45-18-15.1-18-15.1,9.17-15.1,18S487,215.23,497.65,215.23Z"/><path class="cls-3" d="M527.07,175.42h6.18l23,35.41h.12V175.42h5.5v43.66H555.5l-22.81-35h-.12v35h-5.5Z"/><path class="cls-3" d="M584.67,175.42h6.43l17.06,43.66h-6.42L597,205.94H578.5l-4.9,13.14h-6ZM580.34,201h14.79l-7.27-20.36h-.13Z"/><path class="cls-3" d="M614,175.42h5.81v38.77h23.11v4.89H614Z"/><path class="cls-3" d="M213.23,581.91h28.68v4.89H219v13.88H239.1v4.89H219v20h-5.81Z"/><path class="cls-3" d="M249.86,581.91H280v4.89H255.67v13.88h22.69v4.89H255.67v15.1H280.2v4.9H249.86Z"/><path class="cls-3" d="M288.69,581.91h15c13.45,0,21,6.72,21,20.79,0,14.61-6.42,22.87-21,22.87h-15Zm5.81,38.76h9.66c4,0,14.68-1.1,14.68-17.18,0-10.39-3.85-16.69-14.55-16.69H294.5Z"/><path class="cls-3" d="M333.27,581.91h30.15v4.89H339.08v13.88h22.68v4.89H339.08v15.1H363.6v4.9H333.27Z"/><path class="cls-3" d="M372.17,581.91h20.54c8.2,0,13.27,4.46,13.27,11.43,0,5.26-2.32,9.6-7.58,11.07v.12c5.08,1,6.11,4.71,6.55,9s.12,9.05,2.56,12.05H401c-1.65-1.78-.74-6.48-1.59-10.76-.61-4.29-1.65-7.89-7.28-7.89H378v18.65h-5.81ZM390.08,602c5.44,0,10.1-1.41,10.1-7.77,0-4.28-2.33-7.46-7.77-7.46H378V602Z"/><path class="cls-3" d="M427.38,581.91h6.43l17.06,43.66h-6.42l-4.77-13.15H421.21l-4.9,13.15h-6Zm-4.33,25.62h14.79l-7.27-20.36h-.13Z"/><path class="cls-3" d="M461,586.8H446.47v-4.89h34.91v4.89H466.83v38.77H461Z"/><path class="cls-3" d="M488,581.91h5.81v43.66H488Z"/><path class="cls-3" d="M523.58,580.87c13.88,0,20.91,11,20.91,22.87s-7,22.87-20.91,22.87-20.91-11-20.91-22.87S509.7,580.87,523.58,580.87Zm0,40.84c10.64,0,15.1-9.17,15.1-18s-4.46-18-15.1-18-15.11,9.17-15.11,18S512.94,621.71,523.58,621.71Z"/><path class="cls-3" d="M553,581.91h6.17l23,35.4h.12v-35.4h5.5v43.66h-6.36l-22.81-35h-.12v35H553Z"/></svg>